<?xml version="1.0" encoding="UTF-8"?>
<svg width="28px" height="28px" viewBox="0 0 28 28" version="1.1" xmlns="http://www.w3.org/2000/svg" xmlns:xlink="http://www.w3.org/1999/xlink">
    <title>形状结合</title>
    <g id="Win" stroke="none" stroke-width="1" fill="none" fill-rule="evenodd">
        <path d="M22,-8.8817842e-16 C25.3137085,-1.77635684e-15 28,2.6862915 28,6 L28,22 C28,25.3137085 25.3137085,28 22,28 L6,28 C2.6862915,28 0,25.3137085 -8.8817842e-16,22 L-8.8817842e-16,6 C-8.8817842e-16,2.6862915 2.6862915,-8.8817842e-16 6,-8.8817842e-16 L22,-8.8817842e-16 Z M12.6403465,6.1828382 C12.4953433,5.97107289 12.2220704,5.9411721 12.0211201,6.10404515 C11.9383472,6.17113025 11.8563393,6.24695239 11.7984552,6.33441858 C11.5432507,6.72001417 11.2910252,7.10781398 11.0499011,7.50198687 C10.9243499,7.70723534 10.831094,7.93032525 10.7844904,8.16810999 C10.6950924,8.62432063 10.5325617,9.37083966 11.0002536,10.3262857 C11.214861,10.6928578 11.4325775,11.057673 11.6488453,11.4233028 C12.0732744,12.1408418 12.4985337,12.8579017 12.9217095,13.5761436 C13.2960516,14.2115034 13.6683427,14.8480132 14.0410083,15.4843314 C14.6080804,16.452625 15.1738991,17.4216214 15.7417688,18.3894677 C16.0541411,18.9218679 16.3698829,19.4523673 16.6835412,19.9840487 L17.12166,20.7308975 C17.260966,20.9653919 17.5006088,21.0645021 17.7173486,20.9562236 C17.8133229,20.9082897 17.9011258,20.8207756 17.9605074,20.7308017 C18.1089453,20.5058749 18.2414797,20.2706298 18.3759186,20.0370459 C18.6355995,19.5858347 18.8938478,19.1338248 19.1493453,18.6803296 C19.2701922,18.465817 19.3463075,18.2371206 19.3438453,17.9371863 C19.3375012,17.7946145 19.3023898,17.6077985 19.2037622,17.4366197 C19.1064043,17.2676291 19.0091277,17.0985906 18.9115744,16.9297119 C18.3848714,16.0179614 17.8596172,15.1053804 17.3308632,14.1947641 C16.878664,13.4160178 16.4215652,12.6400029 15.9681614,11.8619275 C15.3626573,10.8228272 14.7595948,9.78236922 14.1536186,8.74354044 C13.7779091,8.09945957 13.3990905,7.45713569 13.0208905,6.81446041 C12.8962183,6.60259926 12.7791153,6.38551507 12.6403465,6.1828382 Z M6.94779695,8.92400097 C6.59372075,8.86889535 5.24936414,8.86937452 4.94122409,8.88660901 C4.60122824,8.90563243 4.40584499,9.24869286 4.54562305,9.55397799 C4.57993679,9.62893761 4.6233987,9.70007976 4.66546071,9.77138164 C5.09991703,10.5079601 5.53657085,11.2433087 5.96936682,11.9808295 C6.42918405,12.7643995 6.88602243,13.5496625 7.34323521,14.334702 C8.01700874,15.4915686 8.69094506,16.6483394 9.36296059,17.8061963 C9.92094964,18.7676057 10.4755529,19.7308998 11.0341931,20.6919418 C11.075197,20.7624611 11.1296791,20.8289392 11.190249,20.8842684 C11.3338686,21.0154677 11.5231965,21.0322869 11.6730017,20.9184659 C11.7523564,20.8581691 11.8230186,20.7774274 11.8741799,20.6923571 C12.249922,20.0675073 12.6208295,19.4398623 12.9907115,18.8116423 C13.0922203,18.6392335 13.1990031,18.4677992 13.2788786,18.2855673 C13.4244679,17.9534641 13.3565078,17.635305 13.1751723,17.3320963 C12.9391595,16.9374762 12.7038466,16.5424407 12.4710731,16.1459838 C12.1300517,15.5651546 11.7914395,14.9829517 11.4520297,14.4012121 C10.9793041,13.5909838 10.5057158,12.7812506 10.0345854,11.9701278 C9.71509972,11.4200779 9.40785495,10.863016 9.07966056,10.3180613 C8.59923555,9.52035558 7.86971031,9.06748322 6.94779695,8.92400097 Z M23.0558052,8.87769308 C22.2561061,8.89537479 21.455707,8.88305989 20.6556009,8.87868338 C19.8609154,8.87868338 19.0662136,8.87657499 18.2715443,8.88083969 C18.145521,8.88151054 18.0163073,8.8982339 17.8942721,8.92917291 C17.246706,9.09332376 16.8890324,9.70287178 17.1029398,10.3005362 C17.1820177,10.5214857 17.3045087,10.7294336 17.4230929,10.9344584 C17.9848096,11.905691 18.5535584,12.8730102 19.1162355,13.8437317 C19.2621665,14.0954605 19.392422,14.3558785 19.5351138,14.6094762 C19.6282558,14.7749847 19.7689943,14.874079 19.9706282,14.8630738 C20.1332278,14.854193 20.2484263,14.7638038 20.3349106,14.637604 C20.4240482,14.5075547 20.507863,14.3738318 20.5901639,14.2394379 C21.0142349,13.5470079 21.4390547,12.8549931 21.8597725,12.1605824 C22.2319497,11.5463065 22.5993738,10.9292833 22.9683117,10.3131226 C23.1260279,10.0497018 23.2791864,9.78359752 23.4400606,9.52204549 C23.5972397,9.26646722 23.4370817,8.86925952 23.0558052,8.87769308 Z" id="形状结合" fill="#000000"></path>
    </g>
</svg>